<?xml version="1.0" encoding="UTF-8"?>
<svg width="91px" height="64px" viewBox="0 0 91 64" version="1.1" xmlns="http://www.w3.org/2000/svg" xmlns:xlink="http://www.w3.org/1999/xlink">
    <!-- Generator: Sketch 40.3 (33839) - http://www.bohemiancoding.com/sketch -->
    <title>youtube-play</title>
    <desc>Created with Sketch.</desc>
    <defs>
        <path d="M90.0605508,13.8111822 C90.0605508,13.8111822 89.1699805,7.54221752 86.4465179,4.782242 C82.9874114,1.15836439 79.106163,1.13966287 77.3311822,0.928596384 C64.6008879,0.00859860918 45.5054331,0.00859860918 45.5054331,0.00859860918 L45.4662409,0.00859860918 C45.4662409,0.00859860918 26.370795,0.00859860918 13.6404918,0.928596384 C11.8655199,1.13966287 7.98604996,1.15836439 4.52516139,4.782242 C1.80169257,7.54221752 0.911088512,13.8111822 0.911088512,13.8111822 C0.911088512,13.8111822 0,21.1729268 0,28.5346626 L0,35.4359544 C0,42.7976901 0.911088512,50.1594259 0.911088512,50.1594259 C0.911088512,50.1594259 1.80169257,56.4283888 4.52516139,59.1892633 C7.98604996,62.812241 12.5316985,62.6982471 14.5560389,63.0776398 C21.8340584,63.7758759 45.4858414,63.9914007 45.4858414,63.9914007 C45.4858414,63.9914007 64.6008879,63.9629007 77.3311822,63.0420188 C79.1123939,62.8300542 82.9865213,62.812241 86.4465179,59.1883714 C89.1699805,56.4283888 90.0605508,50.1594259 90.0605508,50.1594259 C90.0605508,50.1594259 90.9690125,42.7976901 90.9690125,35.4359455 L90.9690125,28.5346626 C90.9707928,21.1729268 90.0605508,13.8111822 90.0605508,13.8111822 L90.0605508,13.8111822 Z M36.089965,43.799615 L36.089965,18.2392701 L60.670647,31.0639711 L36.089965,43.799615 L36.089965,43.799615 Z" id="path-1"></path>
        <linearGradient x1="50.0004669%" y1="0.0134352434%" x2="50.0004669%" y2="99.9865243%" id="linearGradient-3">
            <stop stop-color="#E52D27" offset="0%"></stop>
            <stop stop-color="#BF171D" offset="100%"></stop>
        </linearGradient>
    </defs>
    <g id="Symbols" stroke="none" stroke-width="1" fill="none" fill-rule="evenodd">
        <g id="youtube-play">
            <polygon id="Fill-1" fill="#FFFFFF" points="36.089965 43.799615 60.670647 31.0639711 36.089965 18.2392701"></polygon>
            <polygon id="Fill-3" fill-opacity="0.12" fill="#420000" points="36.089965 18.2392701 57.6425925 32.6341074 60.670647 31.0639711"></polygon>
            <g id="Group-7">
                <mask id="mask-2" fill="white">
                    <use xlink:href="#path-1"></use>
                </mask>
                <g id="Clip-6"></g>
                <polygon id="Fill-5" fill="url(#linearGradient-3)" mask="url(#mask-2)" points="0 64 90.9707928 64 90.9707928 0 0 0"></polygon>
            </g>
        </g>
    </g>
</svg>